<svg id="Capa_1" enable-background="new 0 0 501 501" height="512" viewBox="0 0 501 501" width="512" xmlns="http://www.w3.org/2000/svg"><g><path d="m0 250.5c0-135.133 109.404-244.714 244.471-244.999 135.089-.286 244.315 107.681 245.519 242.766.616 69.084-27.365 131.637-72.821 176.539-4.119 4.069-10.713 4.14-14.985.231-43.578-39.875-101.62-64.203-165.343-64.203-59.36 0-113.789 21.11-156.19 56.233-4.867 4.032-12.09 3.534-16.359-1.127-39.928-43.589-64.292-101.669-64.292-165.44z" fill="#e5554e"/><path d="m418.527 423.455c-44.359 44.504-105.727 72.045-173.527 72.045-71.624 0-136.07-30.735-180.869-79.735 5.129-52.034 7.349-113.072 6.661-161.265-.019-1.333-.041-2.667-.064-4-1.204-68.3-8.251-136.528-21.146-203.932l-1.926-10.068 320.11 8c20.321 0 37.691 6.622 41.165 26.644 1.849 10.657 3.642 21.332 4.616 28.021 7.304 50.202 11.401 100.749 12.293 151.334.023 1.333.045 2.667.064 4 .719 50.379-1.74 117.813-7.377 168.956z" fill="#edd578"/><path d="m97.797 446.365c-12.15-9.146-23.421-19.396-33.665-30.6 4.728-47.975 6.985-103.605 6.768-149.763-.018-3.905-.149-14.168-.172-15.502-1.204-68.3-8.251-136.528-21.146-203.932l-1.926-10.068s32.177 3.5 35.489 17.844c.012.053.019.106.028.158 11.629 64.876 18.502 130.382 20.62 195.998.263 8.147.453 16.297.569 24.447.737 51.479-1.453 116.435-6.565 171.418z" fill="#e9cc5a"/><path d="m416.664 191.805c-1.594 1.623-4.099 1.933-6.063.785-17.718-10.352-103.397-60.068-151.381-81.621-50.66-22.754-105.583-34.469-161.118-34.469h-21.036c-2.456 0-4.544-1.777-4.935-4.202-1.468-9.111-6.3-30.203-19.946-34.404l-4.529-1.394h346.443c21.992 0 40.792 14.622 44.551 34.644 1.952 10.4 14.622 83.38-21.986 120.661z" fill="#f9f1d2"/><path d="m107.486 76.612c-3.126-.074-6.254-.112-9.384-.112h-21.036c-2.456 0-4.544-1.777-4.935-4.202-1.468-9.111-6.3-30.203-19.946-34.404l-4.529-1.394h33.5l4.815 1.482c15.66 4.821 20.403 30.563 21.515 38.63z" fill="#f5e8b4"/><path d="m179 184.5c0-4.142 3.358-7.5 7.5-7.5h155c4.142 0 7.5 3.358 7.5 7.5s-3.358 7.5-7.5 7.5h-155c-4.142 0-7.5-3.358-7.5-7.5zm-22.5 45h215c4.142 0 7.5-3.358 7.5-7.5s-3.358-7.5-7.5-7.5h-215c-4.142 0-7.5 3.358-7.5 7.5s3.358 7.5 7.5 7.5zm215 55h-215c-4.142 0-7.5 3.358-7.5 7.5s3.358 7.5 7.5 7.5h215c4.142 0 7.5-3.358 7.5-7.5s-3.358-7.5-7.5-7.5zm-185-35c-4.142 0-7.5 3.358-7.5 7.5 0 4.142 3.358 7.5 7.5 7.5h155c4.142 0 7.5-3.358 7.5-7.5 0-4.142-3.358-7.5-7.5-7.5zm155 70h-155c-4.142 0-7.5 3.358-7.5 7.5 0 4.142 3.358 7.5 7.5 7.5h155c4.142 0 7.5-3.358 7.5-7.5 0-4.142-3.358-7.5-7.5-7.5zm-195 110c-4.142 0-7.5 3.358-7.5 7.5 0 4.142 3.358 7.5 7.5 7.5s7.5-3.358 7.5-7.5c0-4.142-3.358-7.5-7.5-7.5zm25 0c-4.142 0-7.5 3.358-7.5 7.5 0 4.142 3.358 7.5 7.5 7.5s7.5-3.358 7.5-7.5c0-4.142-3.358-7.5-7.5-7.5zm25 0c-4.142 0-7.5 3.358-7.5 7.5 0 4.142 3.358 7.5 7.5 7.5s7.5-3.358 7.5-7.5c0-4.142-3.358-7.5-7.5-7.5z" fill="#c3a01a"/><path d="m497.553 257.577-166.421 166.422c-18.382 18.382-48.186 18.382-66.568 0-18.382-18.382-18.382-48.186 0-66.568l116.495-116.495c32.169-32.169 84.326-32.169 116.495 0 4.595 4.595 4.595 12.046-.001 16.641z" fill="#badfe4"/><path d="m261.248 420.319c-14.991-18.486-13.886-45.688 3.315-62.889l116.495-116.495c27.375-27.375 69.224-31.454 100.913-12.239-25.93-4.984-53.792 2.563-73.87 22.64l-133.136 133.138c-9.843 9.842-14.415 22.96-13.717 35.845z" fill="#95ced6"/><path d="m425.505 217.966-27.308 61.92-11.607-44.007c11.478-9.581 24.951-15.552 38.915-17.913zm-123.839 102.362-37.102 37.102c-1.878 1.878-3.565 3.876-5.059 5.968l4.343 36.695z" fill="#70bdc8"/><path d="m404.955 350.176-42.113-6.651 82.319-33.556zm-25.15 25.149-80.603 31.84 40.397 8.366z" fill="#95ced6"/><path d="m234.696 443.259 146.372-146.372c2.929-2.929 7.678-2.929 10.607 0 2.929 2.929 2.929 7.678 0 10.607l-146.372 146.372c-2.929 2.929-7.678 2.929-10.607 0-2.928-2.929-2.928-7.678 0-10.607z" fill="#36818b"/><path d="m391.675 307.494-87.801 87.801c-2.929 2.929-7.678 2.929-10.607 0-2.929-2.929-2.929-7.678 0-10.607l87.801-87.801c2.929-2.929 7.678-2.929 10.607 0 2.929 2.929 2.929 7.677 0 10.607z" fill="#3f97a4"/></g></svg>